<mxfile host="app.diagrams.net" modified="2023-12-08T19:35:06.379Z" agent="Mozilla/5.0 (Windows NT 10.0; Win64; x64) AppleWebKit/537.36 (KHTML, like Gecko) Chrome/118.0.0.0 Safari/537.36 OPR/104.0.0.0" etag="nlvLpYQ7O3upDLkaoqeu" version="22.1.7" type="github">
  <diagram name="Page-1" id="e7e014a7-5840-1c2e-5031-d8a46d1fe8dd">
    <mxGraphModel dx="987" dy="571" grid="1" gridSize="10" guides="1" tooltips="1" connect="1" arrows="1" fold="1" page="1" pageScale="1" pageWidth="1169" pageHeight="826" background="none" math="0" shadow="0">
      <root>
        <mxCell id="0" />
        <mxCell id="1" parent="0" />
        <mxCell id="2" value="Usuario" style="swimlane;whiteSpace=wrap" parent="1" vertex="1">
          <mxGeometry x="164.5" y="128" width="280" height="570" as="geometry" />
        </mxCell>
        <mxCell id="5" value="" style="ellipse;shape=startState;fillColor=#000000;strokeColor=#000000;" parent="2" vertex="1">
          <mxGeometry x="100" y="40" width="30" height="30" as="geometry" />
        </mxCell>
        <mxCell id="6" value="" style="edgeStyle=elbowEdgeStyle;elbow=horizontal;verticalAlign=bottom;endArrow=open;endSize=8;strokeColor=#000000;endFill=1;rounded=0" parent="2" source="5" edge="1">
          <mxGeometry x="100" y="40" as="geometry">
            <mxPoint x="115.07142857142867" y="110" as="targetPoint" />
          </mxGeometry>
        </mxCell>
        <mxCell id="lXPpiiLehpuR0d5RNRXk-49" style="edgeStyle=orthogonalEdgeStyle;rounded=0;orthogonalLoop=1;jettySize=auto;html=1;entryX=0.5;entryY=0;entryDx=0;entryDy=0;" edge="1" parent="2" source="lXPpiiLehpuR0d5RNRXk-41" target="lXPpiiLehpuR0d5RNRXk-47">
          <mxGeometry relative="1" as="geometry" />
        </mxCell>
        <mxCell id="lXPpiiLehpuR0d5RNRXk-41" value="Inicia o cadastro do campeonato" style="rounded=1;whiteSpace=wrap;html=1;" vertex="1" parent="2">
          <mxGeometry x="72.5" y="112" width="87.5" height="48" as="geometry" />
        </mxCell>
        <mxCell id="lXPpiiLehpuR0d5RNRXk-51" style="edgeStyle=orthogonalEdgeStyle;rounded=0;orthogonalLoop=1;jettySize=auto;html=1;exitX=1;exitY=0.25;exitDx=0;exitDy=0;" edge="1" parent="2" source="lXPpiiLehpuR0d5RNRXk-47">
          <mxGeometry relative="1" as="geometry">
            <mxPoint x="325.5" y="204.52941176470586" as="targetPoint" />
          </mxGeometry>
        </mxCell>
        <mxCell id="lXPpiiLehpuR0d5RNRXk-47" value="registra os dados do campeonato" style="rounded=1;whiteSpace=wrap;html=1;" vertex="1" parent="2">
          <mxGeometry x="72.5" y="192" width="87.5" height="50" as="geometry" />
        </mxCell>
        <mxCell id="3" value="Sistema" style="swimlane;whiteSpace=wrap" parent="1" vertex="1">
          <mxGeometry x="444.5" y="128" width="280" height="570" as="geometry" />
        </mxCell>
        <mxCell id="lXPpiiLehpuR0d5RNRXk-54" style="edgeStyle=orthogonalEdgeStyle;rounded=0;orthogonalLoop=1;jettySize=auto;html=1;entryX=0.5;entryY=0;entryDx=0;entryDy=0;" edge="1" parent="3" source="lXPpiiLehpuR0d5RNRXk-52" target="lXPpiiLehpuR0d5RNRXk-53">
          <mxGeometry relative="1" as="geometry" />
        </mxCell>
        <mxCell id="lXPpiiLehpuR0d5RNRXk-52" value="analisa os dados" style="rounded=1;whiteSpace=wrap;html=1;" vertex="1" parent="3">
          <mxGeometry x="45.5" y="182" width="87.5" height="50" as="geometry" />
        </mxCell>
        <mxCell id="lXPpiiLehpuR0d5RNRXk-57" style="edgeStyle=orthogonalEdgeStyle;rounded=0;orthogonalLoop=1;jettySize=auto;html=1;exitX=0.5;exitY=1;exitDx=0;exitDy=0;" edge="1" parent="3" source="lXPpiiLehpuR0d5RNRXk-53" target="lXPpiiLehpuR0d5RNRXk-56">
          <mxGeometry relative="1" as="geometry" />
        </mxCell>
        <mxCell id="lXPpiiLehpuR0d5RNRXk-53" value="" style="rhombus;whiteSpace=wrap;html=1;" vertex="1" parent="3">
          <mxGeometry x="79" y="276" width="20.5" height="18" as="geometry" />
        </mxCell>
        <mxCell id="lXPpiiLehpuR0d5RNRXk-67" style="edgeStyle=orthogonalEdgeStyle;rounded=0;orthogonalLoop=1;jettySize=auto;html=1;entryX=0.5;entryY=0;entryDx=0;entryDy=0;" edge="1" parent="3" source="lXPpiiLehpuR0d5RNRXk-56" target="lXPpiiLehpuR0d5RNRXk-66">
          <mxGeometry relative="1" as="geometry" />
        </mxCell>
        <mxCell id="lXPpiiLehpuR0d5RNRXk-56" value="registra o campeonato" style="rounded=1;whiteSpace=wrap;html=1;" vertex="1" parent="3">
          <mxGeometry x="45.5" y="342" width="87.5" height="50" as="geometry" />
        </mxCell>
        <mxCell id="lXPpiiLehpuR0d5RNRXk-58" value="[tudo certo]" style="text;html=1;strokeColor=none;fillColor=none;align=center;verticalAlign=middle;whiteSpace=wrap;rounded=0;" vertex="1" parent="3">
          <mxGeometry x="85.5" y="302" width="70.5" height="30" as="geometry" />
        </mxCell>
        <mxCell id="lXPpiiLehpuR0d5RNRXk-60" value="[algo errado]" style="text;html=1;strokeColor=none;fillColor=none;align=center;verticalAlign=middle;whiteSpace=wrap;rounded=0;" vertex="1" parent="3">
          <mxGeometry x="-4.5" y="264" width="74.5" height="30" as="geometry" />
        </mxCell>
        <mxCell id="lXPpiiLehpuR0d5RNRXk-66" value="começa as inscrições" style="rounded=1;whiteSpace=wrap;html=1;" vertex="1" parent="3">
          <mxGeometry x="45.5" y="422" width="87.5" height="50" as="geometry" />
        </mxCell>
        <mxCell id="lXPpiiLehpuR0d5RNRXk-59" style="edgeStyle=orthogonalEdgeStyle;rounded=0;orthogonalLoop=1;jettySize=auto;html=1;entryX=1;entryY=0.75;entryDx=0;entryDy=0;" edge="1" parent="1" source="lXPpiiLehpuR0d5RNRXk-53" target="lXPpiiLehpuR0d5RNRXk-47">
          <mxGeometry relative="1" as="geometry" />
        </mxCell>
      </root>
    </mxGraphModel>
  </diagram>
</mxfile>
